<?xml version="1.0" encoding="UTF-8" standalone="no"?>
<!-- Created with Inkscape (http://www.inkscape.org/) -->
<svg
   xmlns:svg="http://www.w3.org/2000/svg"
   xmlns="http://www.w3.org/2000/svg"
   version="1.0"
   width="400"
   height="125"
   viewBox="0 0 521.361 472.969"
   id="Layer_1"
   xml:space="preserve"><defs
   id="defs2528"><clipPath
     id="XMLID_4_">
		<rect
   width="280"
   height="380"
   x="131"
   y="20.933001"
   id="use2442" />
	</clipPath></defs>


<g
   transform="translate(265.80859,104.0532)"
   id="g4755"><path
     d="M 185.00546,113.51254 L 185.00546,-56.756287 L 374.19302,-56.756287 L 412.03057,94.593776"
     style="fill:none;fill-rule:evenodd;stroke:#000000;stroke-width:3.78375173;stroke-linecap:butt;stroke-linejoin:miter;stroke-miterlimit:4;stroke-dasharray:7.56750337, 3.78375169;stroke-dashoffset:0;stroke-opacity:1"
     id="path3753" /><path
     d="M 449.86813,245.94385 L 468.78685,321.61888 L 185.00546,321.61888 L 185.00546,113.51254 L 355.2743,170.26882"
     style="fill:none;fill-rule:evenodd;stroke:#000000;stroke-width:3.78375173;stroke-linecap:butt;stroke-linejoin:miter;stroke-miterlimit:4;stroke-dasharray:7.56750337, 3.78375169;stroke-dashoffset:0;stroke-opacity:1"
     id="path3755" /><path
     d="M 355.2743,170.26882 L 412.03057,94.593776 L 449.86813,245.94385 L 355.2743,170.26882 z "
     style="fill:none;fill-rule:evenodd;stroke:#000000;stroke-width:3.78375173;stroke-linecap:butt;stroke-linejoin:miter;stroke-miterlimit:4;stroke-dasharray:7.56750337, 3.78375169;stroke-dashoffset:0;stroke-opacity:1"
     id="path3757" /><path
     d="M 468.78685,321.61888 L 657.97439,321.61888 C 657.97439,321.61888 657.97439,-56.756287 657.97439,-56.756287 L 374.19302,-56.756287"
     style="fill:none;fill-rule:evenodd;stroke:#000000;stroke-width:3.78375173;stroke-linecap:butt;stroke-linejoin:miter;stroke-miterlimit:4;stroke-dasharray:7.56750337, 3.78375169;stroke-dashoffset:0;stroke-opacity:1"
     id="path3759" /><path
     d="M 392.16587,293.24076 L 393.11177,170.26882 L 639.05563,132.4313"
     style="fill:none;fill-rule:evenodd;stroke:#000000;stroke-width:7.56750345;stroke-linecap:butt;stroke-linejoin:miter;stroke-miterlimit:4;stroke-dasharray:none;stroke-opacity:1"
     id="path2700" /><path
     d="M 241.7617,-8.612507e-006 L 393.11177,170.26882"
     style="fill:none;fill-rule:evenodd;stroke:#000000;stroke-width:7.56750345;stroke-linecap:butt;stroke-linejoin:miter;stroke-miterlimit:4;stroke-dasharray:none;stroke-opacity:1"
     id="path2698" /><path
     d="M 241.7617,-8.612507e-006 L 392.16587,293.24076 L 639.05563,132.4313 L 241.7617,-8.612507e-006 z "
     style="fill:none;fill-rule:evenodd;stroke:#000000;stroke-width:7.56750345;stroke-linecap:butt;stroke-linejoin:miter;stroke-miterlimit:4;stroke-dasharray:none;stroke-opacity:1"
     id="path2696" /><path
     d="M -666.3387,-56.756287 L -477.15111,-56.756287 L -439.3136,94.593776 L -496.06988,170.26882 L -666.3387,113.51254 L -666.3387,-56.756287 z "
     style="fill:#ffd700;fill-rule:evenodd;stroke:#000000;stroke-width:7.56750345;stroke-linecap:butt;stroke-linejoin:miter;stroke-opacity:1"
     id="path2664" /><path
     d="M -666.3387,113.51254 L -496.06988,170.26882 L -401.47608,245.94385 L -382.55732,321.61888 L -666.3387,321.61888 L -666.3387,113.51254 z "
     style="fill:#228b22;fill-rule:evenodd;stroke:#000000;stroke-width:7.56750345;stroke-linecap:butt;stroke-linejoin:miter;stroke-opacity:1"
     id="path2666" /><path
     d="M -496.06988,170.26882 L -439.3136,94.593776 L -401.47608,245.94385 L -496.06988,170.26882 z "
     style="fill:#ff0000;fill-rule:evenodd;stroke:#000000;stroke-width:7.56750345;stroke-linecap:butt;stroke-linejoin:miter;stroke-opacity:1"
     id="path2668" /><path
     d="M -477.15111,-56.756287 L -382.55732,321.61888 L -193.36974,321.61888 C -193.36974,321.61888 -193.36974,-56.756287 -193.36974,-56.756287 L -477.15111,-56.756287 z "
     style="fill:#4682b4;fill-rule:evenodd;stroke:#000000;stroke-width:7.56750345;stroke-linecap:butt;stroke-linejoin:miter;stroke-opacity:1"
     id="path2670" /><path
     d="M -243.81977 118.24225 A 7.8828168 7.8828168 0 1 1  -259.58541,118.24225 A 7.8828168 7.8828168 0 1 1  -243.81977 118.24225 z"
     transform="matrix(1.1999999,0,0,1.1999999,-307.53935,-141.8907)"
     style="opacity:1;fill:#b3b3b3;fill-opacity:1;fill-rule:nonzero;stroke:none;stroke-width:2;stroke-linecap:square;stroke-miterlimit:4;stroke-dasharray:none;stroke-dashoffset:20.00000238;stroke-opacity:1"
     id="path2672" /><path
     d="M -243.81977 118.24225 A 7.8828168 7.8828168 0 1 1  -259.58541,118.24225 A 7.8828168 7.8828168 0 1 1  -243.81977 118.24225 z"
     transform="matrix(1.1999999,0,0,1.1999999,-156.18927,28.37814)"
     style="opacity:1;fill:#b3b3b3;fill-opacity:1;fill-rule:nonzero;stroke:none;stroke-width:2;stroke-linecap:square;stroke-miterlimit:4;stroke-dasharray:none;stroke-dashoffset:20.00000238;stroke-opacity:1"
     id="path2674" /><path
     d="M -243.81977 118.24225 A 7.8828168 7.8828168 0 1 1  -259.58541,118.24225 A 7.8828168 7.8828168 0 1 1  -243.81977 118.24225 z"
     transform="matrix(1.1999999,0,0,1.1999999,-157.13525,151.35007)"
     style="opacity:1;fill:#b3b3b3;fill-opacity:1;fill-rule:nonzero;stroke:none;stroke-width:2;stroke-linecap:square;stroke-miterlimit:4;stroke-dasharray:none;stroke-dashoffset:20.00000238;stroke-opacity:1"
     id="path2676" /><path
     d="M -243.81977 118.24225 A 7.8828168 7.8828168 0 1 1  -259.58541,118.24225 A 7.8828168 7.8828168 0 1 1  -243.81977 118.24225 z"
     transform="matrix(1.1999999,0,0,1.1999999,89.75461,-9.45938)"
     style="opacity:1;fill:#b3b3b3;fill-opacity:1;fill-rule:nonzero;stroke:none;stroke-width:2;stroke-linecap:square;stroke-miterlimit:4;stroke-dasharray:none;stroke-dashoffset:20.00000238;stroke-opacity:1"
     id="path2678" /><path
     d="M -609.58243,-8.612507e-006 L -459.17833,293.24076 L -212.2885,132.4313 L -609.58243,-8.612507e-006 z "
     style="fill:none;fill-rule:evenodd;stroke:#000000;stroke-width:3.78375173;stroke-linecap:butt;stroke-linejoin:miter;stroke-miterlimit:4;stroke-dasharray:7.56750337, 3.78375169;stroke-dashoffset:0;stroke-opacity:1"
     id="path2680" /><path
     d="M -609.58243,-8.612507e-006 L -458.23236,170.26882"
     style="fill:none;fill-rule:evenodd;stroke:#000000;stroke-width:3.78375173;stroke-linecap:butt;stroke-linejoin:miter;stroke-miterlimit:4;stroke-dasharray:7.56750337, 3.78375169;stroke-dashoffset:0;stroke-opacity:1"
     id="path2682" /><path
     d="M -459.17833,293.24076 L -458.23236,170.26882 L -212.2885,132.4313"
     style="fill:none;fill-rule:evenodd;stroke:#000000;stroke-width:3.78375173;stroke-linecap:butt;stroke-linejoin:miter;stroke-miterlimit:4;stroke-dasharray:7.56750337, 3.78375169;stroke-dashoffset:0;stroke-opacity:1"
     id="path2684" /><path
     d="M -243.81977 118.24225 A 7.8828168 7.8828168 0 1 1  -259.58541,118.24225 A 7.8828168 7.8828168 0 1 1  -243.81977 118.24225 z"
     transform="matrix(1.1999999,0,0,1.1999999,543.80485,-141.8907)"
     style="opacity:1;fill:#ffd700;fill-opacity:1;fill-rule:nonzero;stroke:#000000;stroke-width:3.15312672;stroke-linecap:square;stroke-miterlimit:4;stroke-dasharray:none;stroke-dashoffset:20.00000238;stroke-opacity:1"
     id="path2688" /><path
     d="M -243.81977 118.24225 A 7.8828168 7.8828168 0 1 1  -259.58541,118.24225 A 7.8828168 7.8828168 0 1 1  -243.81977 118.24225 z"
     transform="matrix(1.1999999,0,0,1.1999999,695.15493,28.37814)"
     style="opacity:1;fill:#ff0000;fill-opacity:1;fill-rule:nonzero;stroke:#000000;stroke-width:3.15312672;stroke-linecap:square;stroke-miterlimit:4;stroke-dasharray:none;stroke-dashoffset:20.00000238;stroke-opacity:1"
     id="path2690" /><path
     d="M -243.81977 118.24225 A 7.8828168 7.8828168 0 1 1  -259.58541,118.24225 A 7.8828168 7.8828168 0 1 1  -243.81977 118.24225 z"
     transform="matrix(1.1999999,0,0,1.1999999,694.20895,151.35007)"
     style="opacity:1;fill:#008000;fill-opacity:1;fill-rule:nonzero;stroke:#000000;stroke-width:3.15312672;stroke-linecap:square;stroke-miterlimit:4;stroke-dasharray:none;stroke-dashoffset:20.00000238;stroke-opacity:1"
     id="path2692" /><path
     d="M -243.81977 118.24225 A 7.8828168 7.8828168 0 1 1  -259.58541,118.24225 A 7.8828168 7.8828168 0 1 1  -243.81977 118.24225 z"
     transform="matrix(1.1999999,0,0,1.1999999,941.09886,-9.45938)"
     style="opacity:1;fill:#4682b4;fill-opacity:1;fill-rule:nonzero;stroke:#000000;stroke-width:3.15312672;stroke-linecap:square;stroke-miterlimit:4;stroke-dasharray:none;stroke-dashoffset:20.00000238;stroke-opacity:1"
     id="path2694" /><path
     d="M -144.18098,132.43133 L 139.60039,132.43133"
     style="fill:#000000;fill-rule:evenodd;stroke:#000000;stroke-width:7.56750345;stroke-linecap:butt;stroke-linejoin:miter;stroke-opacity:1"
     id="path2702" /><path
     d="M 101.76288,113.51258 L 158.51916,132.43133 L 101.76288,151.35009 L 101.76288,113.51258 z "
     style="fill:#000000;fill-rule:evenodd;stroke:#000000;stroke-width:7.56750345;stroke-linecap:butt;stroke-linejoin:miter;stroke-opacity:1"
     id="path2704" /><path
     d="M -106.34346,113.51258 L -163.09974,132.43133 L -106.34346,151.35009 L -106.34346,113.51258"
     style="fill:#000000;fill-rule:evenodd;stroke:#000000;stroke-width:7.56750345;stroke-linecap:butt;stroke-linejoin:miter;stroke-opacity:1"
     id="path2706" /></g></svg>